# xmcd
#
# Track frame offsets: 
#        150
#        13562
#        28077
#        48862
#        61257
#        72917
#        85255
#        105372
#        123962
#        138495
#        149535
#
# Disc length: 2389 seconds
#
# Revision: 0
# Processed by: cddbd v1.5.2PL0 Copyright (c) Steve Scherf et al.
# Submitted via: ExactAudioCopy v0.99pb4
#
DISCID=9109530b
DTITLE=Hole In The Wall - Hole In The Wall
DYEAR=1972
DGENRE=Country
TTITLE0=Restless Man
TTITLE1=The Letdown
TTITLE2=Lookout Mountain
TTITLE3=End Of The Effort
TTITLE4=Big Nancy
TTITLE5=Come On Over
TTITLE6=Four Tomorrow
TTITLE7=Pass The Word
TTITLE8=Kilimanjaro Monday
TTITLE9=Love Is Arranging My Life
TTITLE10=Double Or Nothing
EXTD=
EXTT0=
EXTT1=
EXTT2=
EXTT3=
EXTT4=
EXTT5=
EXTT6=
EXTT7=
EXTT8=
EXTT9=
EXTT10=
PLAYORDER=
